<svg width="487" height="265" fill="none" xmlns="http://www.w3.org/2000/svg"><rect x="47" y="172" width="43" height="20" rx="10" fill="url(#a)"/><rect x="60" y="98" width="248" height="119" rx="59.5" fill="#0428AA"/><rect x="60" y="98" width="119" height="119" rx="59.5" fill="#0428AA"/><rect x="125" y="25" width="119" height="119" rx="59.5" fill="#0428AA"/><rect x="1" y="84" width="143" height="66" rx="33" fill="url(#b)"/><rect x="102" y="192" width="159" height="73" rx="36.5" fill="url(#c)"/><path d="M88 58c0-15.464 12.536-28 28-28s28 12.536 28 28v58h-13c-23.748 0-43-19.252-43-43V58Z" fill="url(#d)"/><path d="M58 88c0-15.464 12.536-28 28-28h15c23.748 0 43 19.252 43 43v13H86c-15.464 0-28-12.536-28-28Z" fill="url(#e)"/><path stroke="#fff" stroke-width=".79" stroke-linecap="round" d="M47.395 111.395v10.21M152.695 6.395v8.44M42.395 116.605h10.21M148.395 10.605h8.44"/><defs><linearGradient id="a" x1="47" y1="182" x2="89.996" y2="181.577" gradientUnits="userSpaceOnUse"><stop stop-color="#67DED7"/><stop offset="1" stop-color="#2C4DFF"/></linearGradient><linearGradient id="b" x1="1" y1="117" x2="144" y2="117" gradientUnits="userSpaceOnUse"><stop stop-color="#4B8FF6" stop-opacity=".5"/><stop offset="1" stop-color="#2C4DFF"/></linearGradient><linearGradient id="c" x1="102" y1="192" x2="261" y2="265" gradientUnits="userSpaceOnUse"><stop stop-color="#67DED7"/><stop offset="1" stop-color="#4B8FF6"/></linearGradient><linearGradient id="d" x1="88" y1="30" x2="166.651" y2="81.215" gradientUnits="userSpaceOnUse"><stop stop-color="#67DED7"/><stop offset="1" stop-color="#4B8FF6"/></linearGradient><linearGradient id="e" x1="58" y1="60" x2="109.215" y2="138.651" gradientUnits="userSpaceOnUse"><stop stop-color="#67DED7"/><stop offset="1" stop-color="#4B8FF6"/></linearGradient></defs></svg>