<svg width="487" height="265" viewBox="0 0 487 265" fill="none" xmlns="http://www.w3.org/2000/svg">
<rect x="47" y="172" width="43" height="20" rx="10" fill="url(#paint0_linear_1_3)"/>
<rect x="60" y="98" width="248" height="119" rx="59.5" fill="#0428AA"/>
<rect x="60" y="98" width="119" height="119" rx="59.5" fill="#0428AA"/>
<rect x="125" y="25" width="119" height="119" rx="59.5" fill="#0428AA"/>
<rect x="1" y="84" width="143" height="66" rx="33" fill="url(#paint1_linear_1_3)"/>
<rect x="102" y="192" width="159" height="73" rx="36.5" fill="url(#paint2_linear_1_3)"/>
<path d="M88 58C88 42.536 100.536 30 116 30V30C131.464 30 144 42.536 144 58V116H131C107.252 116 88 96.7482 88 73V58Z" fill="url(#paint3_linear_1_3)"/>
<path d="M58 88C58 72.536 70.536 60 86 60H101C124.748 60 144 79.2518 144 103V116H86C70.536 116 58 103.464 58 88V88Z" fill="url(#paint4_linear_1_3)"/>
<line x1="47.395" y1="111.395" x2="47.395" y2="121.605" stroke="white" stroke-width="0.79" stroke-linecap="round"/>
<line x1="152.695" y1="6.395" x2="152.695" y2="14.835" stroke="white" stroke-width="0.79" stroke-linecap="round"/>
<line x1="42.395" y1="116.605" x2="52.605" y2="116.605" stroke="white" stroke-width="0.79" stroke-linecap="round"/>
<line x1="148.395" y1="10.605" x2="156.835" y2="10.605" stroke="white" stroke-width="0.79" stroke-linecap="round"/>
<defs>
<linearGradient id="paint0_linear_1_3" x1="47" y1="182" x2="89.9958" y2="181.577" gradientUnits="userSpaceOnUse">
<stop stop-color="#67DED7"/>
<stop offset="1" stop-color="#2C4DFF"/>
</linearGradient>
<linearGradient id="paint1_linear_1_3" x1="1" y1="117" x2="144" y2="117" gradientUnits="userSpaceOnUse">
<stop stop-color="#4B8FF6" stop-opacity="0.5"/>
<stop offset="1" stop-color="#2C4DFF"/>
</linearGradient>
<linearGradient id="paint2_linear_1_3" x1="102" y1="192" x2="261" y2="265" gradientUnits="userSpaceOnUse">
<stop stop-color="#67DED7"/>
<stop offset="1" stop-color="#4B8FF6"/>
</linearGradient>
<linearGradient id="paint3_linear_1_3" x1="88" y1="30" x2="166.651" y2="81.2146" gradientUnits="userSpaceOnUse">
<stop stop-color="#67DED7"/>
<stop offset="1" stop-color="#4B8FF6"/>
</linearGradient>
<linearGradient id="paint4_linear_1_3" x1="58" y1="60" x2="109.215" y2="138.651" gradientUnits="userSpaceOnUse">
<stop stop-color="#67DED7"/>
<stop offset="1" stop-color="#4B8FF6"/>
</linearGradient>
</defs>
</svg>
