<svg aria-hidden="true" style="position:absolute;width:0;height:0;overflow:hidden" xmlns="http://www.w3.org/2000/svg"><defs><symbol id="add" viewBox="0 0 32 32"><path fill="#fff" style="fill:var(--color1, #fff)" d="M25.333 17.333h-8v8h-2.667v-8h-8v-2.667h8v-8h2.667v8h8v2.667z"/></symbol><symbol id="emplifi-logo" viewBox="0 0 30 32"><path fill="#4ac7eb" style="fill:var(--color2, #4ac7eb)" d="M6.79 9.597A6.81 6.81 0 0 0 0 16.386v.001a6.813 6.813 0 0 0 6.788 6.79H8.19V9.598h-1.4z"/><path fill="#485daa" style="fill:var(--color3, #485daa)" d="M23.17 9.597h-1.397v13.579h1.4a6.81 6.81 0 0 0 6.79-6.789v-.001a6.81 6.81 0 0 0-6.792-6.79h-.001z"/><path fill="#4ac7eb" style="fill:var(--color2, #4ac7eb)" d="M21.773 8.196a6.81 6.81 0 0 0-6.789-6.79h-.001a6.81 6.81 0 0 0-6.79 6.789v1.401h13.579v-1.4z"/><path fill="#485daa" style="fill:var(--color3, #485daa)" d="M8.399 26.208c.764 2.977 3.417 5.145 6.579 5.158h.002a6.81 6.81 0 0 0 6.793-6.789v-1.401H11.432L8.4 26.208z"/><path fill="#0c3b5d" style="fill:var(--color4, #0c3b5d)" d="M8.19 9.597v14.98c.003.55.073 1.098.209 1.632l3.032-3.032h10.341V9.598H8.189z"/></symbol></defs></svg>